<svg width="10" height="10" viewBox="0 0 10 10" fill="none" xmlns="http://www.w3.org/2000/svg">
<rect width="10" height="10" rx="2" fill="#FC7840"/>
<path d="M4.99994 1.30505C5.26779 1.30505 5.48389 1.52412 5.48025 1.79194L5.4209 6.16009C5.41778 6.39036 5.23022 6.57538 4.99994 6.57538V6.57538C4.76965 6.57538 4.5821 6.39036 4.57897 6.16009L4.51962 1.79194C4.51598 1.52412 4.73209 1.30505 4.99994 1.30505V1.30505ZM4.99994 8.69497C4.82331 8.69497 4.67174 8.63171 4.54523 8.50521C4.41872 8.3787 4.35547 8.22713 4.35547 8.0505C4.35547 7.87386 4.41872 7.72229 4.54523 7.59579C4.67174 7.46928 4.82331 7.40603 4.99994 7.40603C5.17657 7.40603 5.32814 7.46928 5.45465 7.59579C5.58115 7.72229 5.64441 7.87386 5.64441 8.0505C5.64441 8.16746 5.61457 8.27487 5.5549 8.37273C5.49761 8.4706 5.42004 8.54936 5.32217 8.60904C5.2267 8.66632 5.11928 8.69497 4.99994 8.69497Z" fill="white"/>
</svg>
